# xmcd CD database file
#
# Track frame offsets:
#	150
#	24648
#	45680
#	63812
#	91724
#	110621
#	130056
#	149984
#	161703
#	174866
#	190160
#	203371
#	213267
#
# Disc length: 3014 seconds
#
# Revision: 0
# Processed by: cddbd v1.5.2PL0 Copyright (c) Steve Scherf et al.
# Submitted via: CDex 1.51
#
DISCID=af0bc40d
DTITLE=B.B. King - The Life Of Riley CD2
DYEAR=2012
DGENRE=Blues
TTITLE0=The Thrill Is Gone
TTITLE1=Hummingbird
TTITLE2=Caldonia
TTITLE3=Sweet Sixteen (live)
TTITLE4=Hold On (I Feel Our Love Is Changing)
TTITLE5=When Love Comes To Town
TTITLE6=Riding With The King
TTITLE7=Messy But Good
TTITLE8=Worried Dream
TTITLE9=Precious Lord
TTITLE10=On My Word Of Honor
TTITLE11=Tired Of Your Jive
TTITLE12=Think It Over
EXTD=YEAR: 2012
EXTT0=
EXTT1=
EXTT2=
EXTT3=
EXTT4=
EXTT5=
EXTT6=
EXTT7=
EXTT8=
EXTT9=
EXTT10=
EXTT11=
EXTT12=
PLAYORDER=
